<?xml version="1.0" standalone="no"?>
<!DOCTYPE svg PUBLIC "-//W3C//DTD SVG 20010904//EN"
 "http://www.w3.org/TR/2001/REC-SVG-20010904/DTD/svg10.dtd">
<svg version="1.0" xmlns="http://www.w3.org/2000/svg"
 width="512.000000pt" height="512.000000pt" viewBox="0 0 512.000000 512.000000"
 preserveAspectRatio="xMidYMid meet">
<metadata>
Created by potrace 1.14, written by Peter Selinger 2001-2017
</metadata>
<g transform="translate(0.000000,512.000000) scale(0.100000,-0.100000)"
fill="#000000" stroke="none">
<path d="M200 2560 l0 -2360 2360 0 2360 0 0 2360 0 2360 -2360 0 -2360 0 0
-2360z m1267 950 c132 -31 206 -73 304 -170 60 -60 96 -106 122 -155 47 -93
86 -227 94 -331 l6 -84 -161 0 -161 0 -6 48 c-29 209 -94 320 -224 380 -46 22
-74 28 -154 30 -251 9 -384 -106 -445 -388 -25 -115 -24 -690 1 -814 57 -281
190 -394 451 -384 88 3 109 7 160 33 127 64 184 155 211 338 l6 37 159 0 160
0 0 -42 c0 -78 -29 -182 -76 -278 -86 -174 -258 -315 -444 -366 -99 -27 -308
-25 -424 4 -309 77 -492 305 -552 685 -23 143 -23 621 -1 762 64 409 280 654
622 705 102 15 266 11 352 -10z m2698 -5 c236 -66 389 -233 458 -505 36 -138
48 -250 50 -470 l2 -195 -589 -3 -589 -2 6 -133 c8 -200 52 -330 143 -427 84
-90 190 -130 344 -130 178 0 292 45 415 162 42 39 77 69 79 67 2 -2 43 -51 90
-109 l86 -104 -23 -26 c-63 -72 -86 -95 -133 -130 -75 -56 -166 -99 -273 -128
-86 -23 -114 -26 -261 -25 -136 0 -179 4 -245 22 -275 73 -457 263 -530 552
-58 234 -61 704 -6 958 80 364 300 594 616 644 64 11 301 -1 360 -18z m-1502
-785 c73 -27 140 -94 167 -168 88 -233 -140 -459 -374 -372 -195 73 -248 327
-99 474 82 82 198 106 306 66z"/>
<path d="M3815 3220 c-88 -22 -172 -85 -219 -164 -47 -81 -96 -279 -96 -393
l0 -33 417 0 416 0 -6 93 c-19 286 -103 445 -263 493 -49 15 -197 18 -249 4z"/>
</g>
</svg>
